<?xml version="1.0" standalone="no"?><!DOCTYPE svg PUBLIC "-//W3C//DTD SVG 1.1//EN" "http://www.w3.org/Graphics/SVG/1.1/DTD/svg11.dtd"><svg t="1554705712486" class="icon" style="" viewBox="0 0 1024 1024" version="1.1" xmlns="http://www.w3.org/2000/svg" p-id="2159" xmlns:xlink="http://www.w3.org/1999/xlink" width="200" height="200"><defs><style type="text/css"></style></defs><path d="M946.653 28.107c-42.716 0-77.341 34.625-77.341 77.341v24.033L506.604 279.76v-2.438H156.746c-28.738 0-52.039 23.3-52.039 52.048v30.957H33.38c-18.429 0-33.374 14.945-33.374 33.383v224.347c0 18.438 14.945 33.383 33.374 33.383h71.327v27.785c0 28.738 23.3 52.038 52.039 52.038h76.038a193.625 193.625 0 0 0-3.555 52.049c8.119 121.193 124.21 212.582 270.04 212.582 7.549 0 15.21-0.255 22.781-0.765 72.186-4.834 138.952-32.165 187.998-76.943 28.062-25.615 48.608-55.231 60.914-87.062l98.351 37.161v38.032c0 42.721 34.625 77.341 77.341 77.341s77.341-34.62 77.341-77.341V105.448c-0.001-42.716-34.626-77.341-77.342-77.341zM656.108 859.104c-35.724 32.616-85.231 52.575-139.432 56.205-5.757 0.388-11.614 0.584-17.408 0.584-52.661 0-101.377-15.521-137.177-43.703-16.089-12.665-28.843-27.315-37.906-43.544-8.852-15.849-13.944-32.9-15.135-50.685a114.075 114.075 0 0 1 2.096-30.593 79.977 79.977 0 0 0 1.633-16.113l193.826-0.017 189.51 71.604c-7.997 20.394-21.448 39.32-40.007 56.262z m287.886-19.511c-8.027-20.881-24.643-37.922-46.405-46.145l-98.351-37.161L512 651.262H184.707c-0.096-44.101-35.876-79.823-80-79.823H80.006V440.326h24.701c44.183 0 80-35.817 80-80v-3.005h302.294a80.041 80.041 0 0 0 19.609 2.438 79.935 79.935 0 0 0 30.616-6.093l362.708-150.278c20.649-8.556 36.335-25.124 44.06-45.218v681.423z" p-id="2160"></path></svg>