<?xml version="1.0" standalone="no"?><!DOCTYPE svg PUBLIC "-//W3C//DTD SVG 1.1//EN" "http://www.w3.org/Graphics/SVG/1.1/DTD/svg11.dtd"><svg t="1552720686853" class="icon" style="" viewBox="0 0 1034 1024" version="1.1" xmlns="http://www.w3.org/2000/svg" p-id="8905" xmlns:xlink="http://www.w3.org/1999/xlink" width="201.953125" height="200"><defs><style type="text/css"></style></defs><path d="M384 469.333333H85.333333c-46.933333 0-85.333333-38.4-85.333333-85.333333V85.333333c0-46.933333 38.4-85.333333 85.333333-85.333333h298.666667c46.933333 0 85.333333 38.4 85.333333 85.333333v298.666667c0 46.933333-38.4 85.333333-85.333333 85.333333z m0-85.333333v42.666667-42.666667zM85.333333 85.333333v298.666667h298.666667V85.333333H85.333333zM384 1024H85.333333c-46.933333 0-85.333333-38.4-85.333333-85.333333V640c0-46.933333 38.4-85.333333 85.333333-85.333333h298.666667c46.933333 0 85.333333 38.4 85.333333 85.333333v298.666667c0 46.933333-38.4 85.333333-85.333333 85.333333z m0-85.333333v42.666666-42.666666zM85.333333 640v298.666667h298.666667V640H85.333333zM949.333333 1024h-298.666666c-46.933333 0-85.333333-38.4-85.333334-85.333333V640c0-46.933333 38.4-85.333333 85.333334-85.333333h298.666666c46.933333 0 85.333333 38.4 85.333334 85.333333v298.666667c0 46.933333-38.4 85.333333-85.333334 85.333333z m0-85.333333v42.666666-42.666666z m-298.666666-298.666667v298.666667h298.666666V640h-298.666666z" p-id="8906"></path><path d="M791.466667 234.666667m-66.133334 0a66.133333 66.133333 0 1 0 132.266667 0 66.133333 66.133333 0 1 0-132.266667 0Z" p-id="8907"></path><path d="M721.066667 469.333333c-10.666667 0-19.2-2.133333-29.866667-8.533333l-38.4-23.466667c-25.6-17.066667-36.266667-53.333333-21.333333-81.066666l17.066666-29.866667c-2.133333-2.133333-4.266667-6.4-4.266666-8.533333h-29.866667c-32 0-57.6-27.733333-57.6-59.733334V211.2c0-32 25.6-59.733333 57.6-59.733333h29.866667c2.133333-2.133333 4.266667-6.4 4.266666-8.533334l-17.066666-29.866666c-14.933333-27.733333-6.4-64 21.333333-81.066667L691.2 8.533333c12.8-8.533333 27.733333-10.666667 42.666667-6.4s27.733333 14.933333 36.266666 27.733334l14.933334 27.733333h8.533333l17.066667-27.733333c8.533333-14.933333 21.333333-23.466667 36.266666-27.733334 14.933333-4.266667 29.866667-2.133333 42.666667 6.4l38.4 23.466667c25.6 17.066667 36.266667 53.333333 21.333333 81.066667l-17.066666 29.866666c2.133333 2.133333 4.266667 6.4 4.266666 8.533334h29.866667c32 0 57.6 27.733333 57.6 59.733333v46.933333c0 32-25.6 59.733333-57.6 59.733334h-29.866667c-2.133333 2.133333-4.266667 6.4-4.266666 8.533333l17.066666 29.866667c14.933333 27.733333 6.4 64-21.333333 81.066666l-38.4 23.466667c-12.8 8.533333-27.733333 10.666667-42.666667 6.4s-27.733333-14.933333-36.266666-27.733333l-14.933334-27.733334h-8.533333l-14.933333 27.733334c-8.533333 14.933333-21.333333 23.466667-36.266667 27.733333-4.266667 2.133333-10.666667 2.133333-14.933333 2.133333zM612.266667 194.133333c-8.533333 0-14.933333 8.533333-14.933334 17.066667v46.933333c0 8.533333 6.4 17.066667 14.933334 17.066667h57.6l6.4 12.8c4.266667 8.533333 8.533333 17.066667 14.933333 25.6l8.533333 10.666667-27.733333 53.333333c-4.266667 8.533333-2.133333 19.2 6.4 23.466667l38.4 23.466666c2.133333 2.133333 4.266667 2.133333 8.533333 2.133334s6.4-4.266667 8.533334-8.533334l29.866666-53.333333 14.933334 2.133333h27.733333l14.933333-2.133333 29.866667 53.333333c2.133333 4.266667 4.266667 6.4 8.533333 8.533334 2.133333 0 6.4 0 10.666667-2.133334l38.4-23.466666c6.4-4.266667 10.666667-14.933333 6.4-23.466667l-27.733333-53.333333 8.533333-10.666667c6.4-8.533333 10.666667-17.066667 14.933333-25.6l6.4-12.8h57.6c8.533333 0 14.933333-8.533333 14.933334-17.066667V211.2c0-8.533333-6.4-17.066667-14.933334-17.066667H917.333333l-6.4-12.8c-4.266667-8.533333-8.533333-17.066667-14.933333-25.6l-8.533333-10.666666 27.733333-53.333334c4.266667-8.533333 2.133333-19.2-6.4-23.466666l-38.4-23.466667c-8.533333-2.133333-10.666667-2.133333-12.8-2.133333-4.266667 0-6.4 4.266667-8.533333 8.533333l-29.866667 53.333333-14.933333-2.133333h-27.733334l-14.933333 2.133333-29.866667-53.333333c0-4.266667-4.266667-6.4-6.4-8.533333-2.133333 0-6.4 0-10.666666 2.133333l-38.4 23.466667c-6.4 4.266667-10.666667 14.933333-6.4 23.466666l27.733333 53.333334-8.533333 10.666666c-6.4 8.533333-10.666667 17.066667-14.933334 25.6l-6.4 12.8h-55.466666z" p-id="8908"></path></svg>