<?xml version="1.0" standalone="no"?><!DOCTYPE svg PUBLIC "-//W3C//DTD SVG 1.1//EN" "http://www.w3.org/Graphics/SVG/1.1/DTD/svg11.dtd"><svg t="1552720696369" class="icon" style="" viewBox="0 0 1026 1024" version="1.1" xmlns="http://www.w3.org/2000/svg" p-id="9032" xmlns:xlink="http://www.w3.org/1999/xlink" width="128" height="128"><defs><style type="text/css"></style></defs><path d="M384 469.333333H85.333333c-46.933333 0-85.333333-38.4-85.333333-85.333333V85.333333c0-46.933333 38.4-85.333333 85.333333-85.333333h298.666667c46.933333 0 85.333333 38.4 85.333333 85.333333v298.666667c0 46.933333-38.4 85.333333-85.333333 85.333333z m0-85.333333v42.666667-42.666667zM85.333333 85.333333v298.666667h298.666667V85.333333H85.333333zM770.133333 512c-21.333333 0-40.533333-8.533333-55.466666-23.466667l-177.066667-177.066666c-14.933333-14.933333-23.466667-34.133333-23.466667-55.466667s8.533333-40.533333 23.466667-55.466667L714.666667 21.333333c29.866667-29.866667 81.066667-29.866667 110.933333 0L1002.666667 200.533333c14.933333 14.933333 23.466667 34.133333 23.466666 55.466667s-8.533333 40.533333-23.466666 55.466667l-177.066667 177.066666c-14.933333 14.933333-34.133333 23.466667-55.466667 23.466667z m-166.4-256l168.533334 168.533333L938.666667 256l-168.533334-168.533333-166.4 168.533333zM384 1024H85.333333c-46.933333 0-85.333333-38.4-85.333333-85.333333V640c0-46.933333 38.4-85.333333 85.333333-85.333333h298.666667c46.933333 0 85.333333 38.4 85.333333 85.333333v298.666667c0 46.933333-38.4 85.333333-85.333333 85.333333z m0-85.333333v42.666666-42.666666zM85.333333 640v298.666667h298.666667V640H85.333333zM940.8 1024h-298.666667c-46.933333 0-85.333333-38.4-85.333333-85.333333V640c0-46.933333 38.4-85.333333 85.333333-85.333333h298.666667c46.933333 0 85.333333 38.4 85.333333 85.333333v298.666667c0 46.933333-38.4 85.333333-85.333333 85.333333z m0-85.333333v42.666666-42.666666z m-298.666667-298.666667v298.666667h298.666667V640h-298.666667z" p-id="9033"></path></svg>