<?xml version="1.0" standalone="no"?><!DOCTYPE svg PUBLIC "-//W3C//DTD SVG 1.1//EN" "http://www.w3.org/Graphics/SVG/1.1/DTD/svg11.dtd"><svg t="1559113852968" class="icon" style="" viewBox="0 0 1024 1024" version="1.1" xmlns="http://www.w3.org/2000/svg" p-id="2620" xmlns:xlink="http://www.w3.org/1999/xlink" width="200" height="200"><defs><style type="text/css"></style></defs><path d="M830.976 976 201.6 976c-52.928 0-96-43.072-96-96l0-212.032c0-17.664 14.336-32 32-32s32 14.336 32 32l0 212.032c0 17.6 14.336 32 32 32l629.376 0c17.6 0 32-14.4 32-32l0-212.032c0-17.664 14.336-32 32-32s32 14.336 32 32l0 212.032C926.976 932.928 883.968 976 830.976 976zM966.016 419.968c-0.192-1.152 0.064-2.304-0.256-3.456l-0.64-2.304c-0.256-0.96-0.128-1.6-0.384-2.624-0.128-0.512-0.512-0.896-0.704-1.408l-86.912-323.712c-3.776-13.952-16.384-23.68-30.848-23.68L186.24 62.784c-14.464 0-27.136 9.728-30.912 23.744L68.48 410.176C68.352 410.688 67.968 411.008 67.84 411.52 67.584 412.48 67.712 413.184 67.456 414.08l-0.64 2.432c-0.32 1.152 0 2.304-0.192 3.456C63.68 432.576 61.312 444.608 61.312 455.936c0 92.608 75.392 168 168 168 56.576 0 106.496-28.288 136.896-71.296 33.088 47.488 87.936 78.784 150.08 78.784s116.992-31.296 150.016-78.784c30.528 42.944 80.384 71.296 136.96 71.296 92.608 0 168-75.392 168-168C971.264 444.608 968.896 432.576 966.016 419.968z" p-id="2621"></path></svg>