<?xml version="1.0" standalone="no"?><!DOCTYPE svg PUBLIC "-//W3C//DTD SVG 1.1//EN" "http://www.w3.org/Graphics/SVG/1.1/DTD/svg11.dtd"><svg t="1559113302696" class="icon" style="" viewBox="0 0 1024 1024" version="1.1" xmlns="http://www.w3.org/2000/svg" p-id="1876" xmlns:xlink="http://www.w3.org/1999/xlink" width="200" height="200"><defs><style type="text/css"></style></defs><path d="M146.304 0h731.392A146.304 146.304 0 0 1 1024 146.304v731.392A146.304 146.304 0 0 1 877.696 1024H146.304A146.304 146.304 0 0 1 0 877.696V146.304A146.304 146.304 0 0 1 146.304 0zM256 192a64 64 0 1 0 0 128 64 64 0 0 0 0-128z m256 0a64 64 0 1 0 0 128 64 64 0 0 0 0-128z m256 0a64 64 0 1 0 0 128 64 64 0 0 0 0-128zM256 448a64 64 0 0 0 0 128h512a64 64 0 1 0 0-128H256z m0 256a64 64 0 1 0 0 128h384a64 64 0 0 0 0-128H256z" p-id="1877"></path></svg>