<?xml version="1.0" standalone="no"?><!DOCTYPE svg PUBLIC "-//W3C//DTD SVG 1.1//EN" "http://www.w3.org/Graphics/SVG/1.1/DTD/svg11.dtd"><svg t="1558403329614" class="icon" style="" viewBox="0 0 1024 1024" version="1.1" xmlns="http://www.w3.org/2000/svg" p-id="1990" xmlns:xlink="http://www.w3.org/1999/xlink" width="200" height="200"><defs><style type="text/css"></style></defs><path d="M1023.053953 432.689676c0 70.070892-57.193607 130.420375-127.763872 130.420375-70.568219 0-127.763872-60.35153-127.763872-130.420375l0 0 0 0 0 0c0 70.070892-57.195653 130.420375-127.763872 130.420375-70.570265 0-127.763872-60.35153-127.763872-130.420375l0 0 0 0 0 0 0 0c0 70.070892-57.19463 130.420375-127.763872 130.420375s-127.763872-60.35153-127.763872-130.420375l0 0 0 0 0 0 0 0c0 70.070892-57.19463 130.420375-127.763872 130.420375-70.568219 0-127.763872-60.35153-127.763872-130.420375l0 0 0 0 0 0 102.210893-227.327472L920.84306 205.362204 1023.053953 432.689676 1023.053953 432.689676 1023.053953 432.689676zM869.737102 154.255223 154.262898 154.255223c-31.741935 0-51.104935-24.828478-51.104935-51.104935 0-26.276457 16.019859-51.104935 57.494459-51.104935l702.700273 0c38.527478 0 57.493435 24.829502 57.493435 51.104935C920.845107 129.426745 896.189567 154.255223 869.737102 154.255223zM154.262898 588.664054 154.262898 588.664054C158.855496 588.240405 149.795143 589.413114 154.262898 588.664054 155.236062 588.490092 153.314293 588.81448 154.262898 588.664054c2.071172-0.400113 23.50739 0.449231 25.554002 0 8.682753-1.99647 17.392112 3.14462 25.552979 0l0 0 0 0 0 229.973742 613.264335 0L818.634214 588.664054l25.552979 0 0 0c8.136308 3.14462 16.892739-1.99647 25.552979 0 2.046612 0.449231-2.070148-0.400113 0 0 0.949628 0.149403-0.973164-0.173962 0 0 4.493338 0.748037-4.590552-0.423649 0 0l0 0c5.265934 0.474814 20.162202 0 25.552979 0 10.930957 0 15.171538 1.89721 25.555026 0l0 332.184635c0 26.250874-24.65554 51.105958-51.106981 51.105958L154.264944 971.954647c-26.451442 0-51.104935-24.855084-51.104935-51.105958L103.16001 588.664054c10.381441 1.89721 14.624069 0 25.552979 0C134.099672 588.664054 148.999011 589.138868 154.262898 588.664054z" p-id="1991"></path></svg>