<?xml version="1.0" standalone="no"?><!DOCTYPE svg PUBLIC "-//W3C//DTD SVG 1.1//EN" "http://www.w3.org/Graphics/SVG/1.1/DTD/svg11.dtd"><svg t="1552720357189" class="icon" style="" viewBox="0 0 1024 1024" version="1.1" xmlns="http://www.w3.org/2000/svg" p-id="4622" xmlns:xlink="http://www.w3.org/1999/xlink" width="200" height="200"><defs><style type="text/css"></style></defs><path d="M279.4 307.6a209.8 209.4 0 1 0 419.6 0 209.8 209.4 0 1 0-419.6 0Z" p-id="4623"></path><path d="M510 606.7h104.5v-51.1c-40.3-13.7-82.6-21-125.2-21.5-216.3 0-391.7 175.4-391.7 391.7H611v-75.9H510V606.7z" p-id="4624"></path><path d="M926.5 714.2v-77.8h-83.7v-99.7H765v99.7h-34.1v-99.7H653v99.7H537.3v77.8H653v34.1H537.3v77.8H653v99.7h77.8v-99.7h34.1v99.7h77.8v-99.7h83.7v-77.8h-83.7v-34.1h83.8z m-161.6 34h-34.1v-34.1h34.1v34.1z" p-id="4625"></path></svg>