<?xml version="1.0" standalone="no"?><!DOCTYPE svg PUBLIC "-//W3C//DTD SVG 1.1//EN" "http://www.w3.org/Graphics/SVG/1.1/DTD/svg11.dtd"><svg t="1552720442973" class="icon" style="" viewBox="0 0 1024 1024" version="1.1" xmlns="http://www.w3.org/2000/svg" p-id="5771" xmlns:xlink="http://www.w3.org/1999/xlink" width="200" height="200"><defs><style type="text/css"></style></defs><path d="M512 650.376533c-21.077333 0-38.161067-26.077867-38.161067-58.282667L473.838933 271.479467c0-32.2048 17.083733-58.282667 38.161067-58.282667 21.060267 0 38.161067 26.077867 38.161067 58.282667l0 320.631467C550.161067 624.298667 533.060267 650.376533 512 650.376533L512 650.376533zM512.017067 810.820267c-26.555733 0-48.0256-21.521067-48.0256-48.042667 0-26.504533 21.486933-48.008533 48.0256-48.008533 26.5216 0 48.008533 21.486933 48.008533 48.008533C560.008533 789.2992 538.538667 810.820267 512.017067 810.820267L512.017067 810.820267zM983.7568 312.695467c-25.787733-60.9792-62.702933-115.712-109.704533-162.747733-47.018667-47.018667-101.768533-83.9168-162.747733-109.7216C648.174933 13.533867 581.12 0 512 0s-136.174933 13.533867-199.304533 40.226133c-60.9792 25.787733-115.729067 62.702933-162.730667 109.7216-47.018667 47.018667-83.933867 101.768533-109.7216 162.747733C13.533867 375.825067 0 442.88 0 512s13.533867 136.174933 40.2432 199.304533c25.787733 60.962133 62.702933 115.729067 109.7216 162.730667 47.0016 47.018667 101.751467 83.933867 162.730667 109.7216C375.825067 1010.466133 442.88 1024 512 1024c128.2048 0 250.845867-47.598933 345.3952-134.0416 8.328533-7.6288 8.891733-20.565333 1.28-28.910933-7.611733-8.328533-20.565333-8.9088-28.910933-1.297067C742.792533 939.264 629.947733 983.074133 512 983.074133c-63.607467 0-125.303467-12.4416-183.364267-37.0176-56.081067-23.722667-106.461867-57.685333-149.725867-100.949333-43.264-43.281067-77.226667-93.6448-100.949333-149.742933C53.384533 637.303467 40.925867 575.607467 40.925867 512s12.4416-125.303467 37.0176-183.364267c23.722667-56.081067 57.685333-106.461867 100.949333-149.725867s93.6448-77.243733 149.725867-100.9664C386.696533 53.367467 448.392533 40.925867 512 40.925867c63.624533 0 125.303467 12.4416 183.364267 37.000533 56.098133 23.722667 106.461867 57.7024 149.725867 100.9664s77.226667 93.6448 100.949333 149.725867c24.558933 58.0608 37.0176 119.773867 37.0176 183.364267 0 83.968-22.3744 166.4-64.6656 238.353067-5.7344 9.762133-2.474667 22.306133 7.287467 28.040533 9.728 5.7344 22.272 2.474667 28.0064-7.287467C999.68 692.872533 1024 603.255467 1024 512 1024 442.88 1010.449067 375.825067 983.7568 312.695467z" p-id="5772"></path></svg>