<?xml version="1.0" standalone="no"?><!DOCTYPE svg PUBLIC "-//W3C//DTD SVG 1.1//EN" "http://www.w3.org/Graphics/SVG/1.1/DTD/svg11.dtd"><svg t="1558509969842" class="icon" style="" viewBox="0 0 1024 1024" version="1.1" xmlns="http://www.w3.org/2000/svg" p-id="4232" xmlns:xlink="http://www.w3.org/1999/xlink" width="200" height="200"><defs><style type="text/css"></style></defs><path d="M0.583487 1023.452257 0.583487 16.444364l499.8384 0L500.421887 1023.452257 0.583487 1023.452257 0.583487 1023.452257zM187.493646 139.147798c-39.049828 0-76.863207-0.618224-114.522533 0.772277-4.86323 0.154053-13.11864 10.571233-13.274706 16.436309-1.233428 35.806667-0.616211 71.614341-0.616211 109.814362l128.41345 0L187.493646 139.147798 187.493646 139.147798zM59.234248 518.443529l127.950285 0 0-125.326356c-39.280403 0-76.93973-0.463165-114.522533 0.618224-4.630641 0.154053-12.656482 8.720588-12.809528 13.581805C58.771083 444.590893 59.234248 481.942114 59.234248 518.443529L59.234248 518.443529zM187.878274 665.45506c-0.384628-7.022988-12.733005-18.288969-20.219158-18.83067-29.401903-2.237287-59.112919-1.774123-88.514822-0.230576-6.867929 0.307098-18.752133 8.642051-18.982709 13.735857-1.62007 37.273691-0.927336 74.702442-0.927336 112.594358l129.647885 0C188.882133 734.446479 190.039038 699.873239 187.878274 665.45506L187.878274 665.45506zM441.848655 158.518156c-0.385635-6.868935-11.035405-18.445035-17.441176-18.754147-35.497555-1.852659-71.15319-0.925323-108.657457-0.925323l0 129.645871c37.659326 0 74.316807 0.772277 110.818222-0.8488 5.633494-0.229569 15.048829-11.188451 15.355927-17.671751C443.546255 219.55925 443.778844 188.923919 441.848655 158.518156L441.848655 158.518156zM442.697455 392.886597c-40.900473 0-76.554095-0.464172-112.206709 0.461151-5.477427 0.15506-15.280411 6.946465-15.43245 10.882359-1.158919 38.431603-0.696761 76.863207-0.696761 116.837351 39.049828 0 72.849783 1.157912 106.42017-0.8488 7.639199-0.463165 20.449733-11.49857 20.913905-18.288969C443.855367 467.43398 442.697455 432.706688 442.697455 392.886597L442.697455 392.886597zM441.848655 664.760312c-0.385635-6.635339-11.49857-17.826811-18.133909-18.135923-34.574246-1.850645-69.378061-0.8488-107.500552-0.8488l0 125.557938 126.483261 0C442.697455 733.983314 443.701315 699.256022 441.848655 664.760312L441.848655 664.760312zM888.131107 1023.684847 888.131107 774.498152 692.654413 774.498152l0 249.493793L572.577929 1023.991945 572.577929 462.108592l435.400092 0 0 561.576255L888.131107 1023.684847 888.131107 1023.684847zM571.110905 390.030079l0-55.176018 437.020162 0 0 55.176018L571.110905 390.030079 571.110905 390.030079z" p-id="4233"></path></svg>