<?xml version="1.0" standalone="no"?><!DOCTYPE svg PUBLIC "-//W3C//DTD SVG 1.1//EN" "http://www.w3.org/Graphics/SVG/1.1/DTD/svg11.dtd"><svg t="1552721042947" class="icon" style="" viewBox="0 0 1024 1024" version="1.1" xmlns="http://www.w3.org/2000/svg" p-id="10773" xmlns:xlink="http://www.w3.org/1999/xlink" width="200" height="200"><defs><style type="text/css"></style></defs><path d="M441.6 902.4c-89.6 0-172.8 0-204.8 0-19.2 0-32-12.8-32-32 0-83.2 32-166.4 89.6-230.4C345.6 588.8 422.4 556.8 512 556.8c185.6 0 313.6 166.4 313.6 320 0 19.2-12.8 32-32 32C748.8 902.4 582.4 902.4 441.6 902.4zM268.8 838.4c115.2 0 384 0 486.4 0-12.8-108.8-115.2-224-243.2-224-70.4 0-128 25.6-172.8 70.4C294.4 729.6 275.2 780.8 268.8 838.4z" p-id="10774"></path><path d="M800 1024l-576 0c-108.8 0-198.4-96-198.4-217.6L25.6 217.6C25.6 96 115.2 0 224 0l582.4 0c51.2 0 96 19.2 128 57.6 38.4 38.4 64 102.4 64 160l0 588.8C992 928 908.8 1024 800 1024zM224 64C147.2 64 89.6 134.4 89.6 217.6l0 588.8c0 83.2 57.6 153.6 134.4 153.6l576 0c70.4 0 128-70.4 134.4-153.6l0-588.8c0-44.8-19.2-89.6-44.8-115.2C864 76.8 832 64 800 64L224 64z" p-id="10775"></path><path d="M512 620.8C377.6 620.8 268.8 512 268.8 377.6S377.6 134.4 512 134.4s243.2 108.8 243.2 243.2S646.4 620.8 512 620.8zM512 198.4c-96 0-179.2 76.8-179.2 179.2S416 556.8 512 556.8s179.2-76.8 179.2-179.2S608 198.4 512 198.4z" p-id="10776"></path></svg>