<?xml version="1.0" standalone="no"?><!DOCTYPE svg PUBLIC "-//W3C//DTD SVG 1.1//EN" "http://www.w3.org/Graphics/SVG/1.1/DTD/svg11.dtd"><svg t="1552720557641" class="icon" style="" viewBox="0 0 1024 1024" version="1.1" xmlns="http://www.w3.org/2000/svg" p-id="7582" xmlns:xlink="http://www.w3.org/1999/xlink" width="200" height="200"><defs><style type="text/css"></style></defs><path d="M515.131392 563.202048c155.492352 0 281.544704-126.075904 281.544704-281.544704 0-155.492352-126.053376-281.544704-281.544704-281.544704-155.497472 0-281.547776 126.052352-281.547776 281.544704C233.58464 437.126144 359.634944 563.202048 515.131392 563.202048zM643.106816 359.1424c0 0-6.398976 101.680128-131.175424 101.680128-124.777472 0-124.777472-101.680128-124.777472-101.680128L643.106816 359.1424zM515.131392 614.391808c-332.112896 0-409.522176 170.066944-409.522176 409.496576l819.04128 0C924.650496 783.058944 848.638976 614.391808 515.131392 614.391808z" p-id="7583"></path></svg>